<svg id="main" xmlns="http://www.w3.org/2000/svg" viewBox="0 0 196 220.5">
  <defs>
    <style>
      .cls-1 {
        fill: #000;
      }
    </style>
  </defs>
  <title>logo</title>
  <path class="cls-1" d="M126.5,89.75H102v98h24.5v-73.5h147v171.5h-147v-24.5a24.5,24.5,0,0,1,24.5-24.5h49a48.51,48.51,0,0,0,24.5-6.56A49,49,0,1,0,151,187.75v24.5a49,49,0,0,0-49,49v49H298V89.75Zm73.5,73.5a24.5,24.5,0,0,1,0,49H175.5v-24.5A24.5,24.5,0,0,1,200,163.25Z" transform="translate(-102 -89.75)"/>
</svg>
